<?xml version="1.0" standalone="no"?><!DOCTYPE svg PUBLIC "-//W3C//DTD SVG 1.1//EN" "http://www.w3.org/Graphics/SVG/1.1/DTD/svg11.dtd"><svg t="1679840093281" class="icon" viewBox="0 0 1024 1024" version="1.1" xmlns="http://www.w3.org/2000/svg" p-id="7077" xmlns:xlink="http://www.w3.org/1999/xlink" width="200" height="200"><path d="M69.818182 69.818182h209.454545v884.363636H69.818182z" fill="#0dbb0c" p-id="7078"></path><path d="M861.090909 1012.363636H162.909091C93.090909 1012.363636 34.909091 954.181818 34.909091 884.363636V139.636364C34.909091 69.818182 93.090909 11.636364 162.909091 11.636364h698.181818c69.818182 0 128 58.181818 128 128v744.727272c0 69.818182-58.181818 128-128 128zM162.909091 81.454545C130.327273 81.454545 104.727273 107.054545 104.727273 139.636364v744.727272c0 32.581818 25.6 58.181818 58.181818 58.181819h698.181818c32.581818 0 58.181818-25.6 58.181818-58.181819V139.636364c0-32.581818-25.6-58.181818-58.181818-58.181819H162.909091z" fill="#0dbb0c" p-id="7079"></path><path d="M244.363636 69.818182h69.818182v893.672727h-69.818182z" fill="#0dbb0c" p-id="7080"></path><path d="M498.036364 649.309091l-23.272728-20.945455 20.945455-258.327272 20.945454-18.618182 209.454546 6.981818v39.563636l-193.163636-4.654545-4.654546 81.454545 179.2-2.327272 2.327273 39.563636-186.181818 2.327273-6.981819 95.418182 214.109091-18.618182 4.654546 39.563636z" fill="#0dbb0c" p-id="7081"></path></svg>
